<svg fill="#000000" xmlns="http://www.w3.org/2000/svg"  viewBox="0 0 50 50" width="150px" height="150px"><path d="M 8.90625 2 C 5.144531 2 2.09375 5.164063 2.09375 8.90625 C 2.09375 11.808594 3.960938 14.296875 6.6875 15.15625 C 5.984375 18.566406 6.871094 22.277344 9.5 24.90625 L 9.6875 25.09375 L 9.5625 25.15625 L 9.46875 25.21875 L 9.40625 25.28125 C 6.859375 27.828125 5.878906 31.394531 6.4375 34.71875 C 3.867188 35.773438 2 38.160156 2 41.09375 C 2 44.835938 5.0625 48 8.90625 48 C 11.839844 48 14.246094 46.125 15.21875 43.46875 C 18.511719 44.003906 21.984375 43.039063 24.59375 40.53125 L 24.59375 40.5 L 24.6875 40.40625 L 24.90625 40.59375 C 27.535156 43.222656 31.273438 44.195313 34.78125 43.40625 C 35.714844 46.070313 38.183594 48 41.1875 48 C 44.929688 48 48.09375 44.9375 48.09375 41.09375 L 48.09375 41.0625 C 47.988281 37.941406 45.839844 35.453125 42.96875 34.625 C 43.488281 31.34375 42.515625 27.921875 40 25.40625 L 39.8125 25.1875 L 39.90625 25.09375 C 42.527344 22.472656 43.398438 18.851563 42.78125 15.46875 C 45.65625 14.636719 47.8125 12.136719 47.8125 9 C 47.8125 5.257813 44.75 2.09375 40.90625 2.09375 C 37.777344 2.09375 35.277344 4.234375 34.4375 7.09375 C 31.035156 6.402344 27.414063 7.371094 24.71875 9.96875 L 24.53125 9.8125 C 24.519531 9.800781 24.511719 9.792969 24.5 9.78125 C 22.058594 7.261719 18.621094 6.390625 15.375 6.84375 C 14.527344 4.03125 11.953125 2 8.90625 2 Z M 8.90625 4 C 11.324219 4 13.390625 5.738281 13.71875 8.03125 L 13.875 9.09375 L 14.90625 8.875 C 17.800781 8.242188 20.957031 8.960938 23.09375 11.1875 L 23.09375 11.21875 L 23.1875 11.3125 L 20.3125 14.1875 L 20.21875 14.09375 C 18.429688 12.304688 15.476563 12.304688 13.6875 14.09375 C 11.898438 15.882813 11.898438 18.804688 13.6875 20.59375 L 13.75 20.65625 L 13.96875 20.84375 L 13.90625 20.90625 L 18.90625 25.90625 L 19.59375 26.625 L 19.6875 26.5 L 23.28125 30.09375 L 20.40625 33 L 16 28.59375 L 11.71875 24.28125 L 11.46875 24.0625 L 10.90625 23.5 C 8.578125 21.171875 7.855469 17.734375 8.75 14.78125 L 9.09375 13.6875 L 7.9375 13.5 C 5.628906 13.171875 4.09375 11.253906 4.09375 8.90625 C 4.09375 6.246094 6.269531 4 8.90625 4 Z M 40.90625 4.09375 C 43.660156 4.09375 45.8125 6.339844 45.8125 9 C 45.8125 11.511719 43.992188 13.476563 41.5625 13.8125 L 40.4375 13.96875 L 40.75 15.0625 C 41.558594 18.035156 40.835938 21.351563 38.5 23.6875 L 38.40625 23.78125 L 35.5 20.90625 L 35.59375 20.8125 C 37.382813 19.023438 37.382813 16.070313 35.59375 14.28125 C 33.804688 12.492188 30.882813 12.492188 29.09375 14.28125 L 28.28125 15.09375 L 24 19.40625 L 23.28125 20.09375 L 23.3125 20.125 L 19.71875 23.6875 L 16.78125 20.78125 L 21 16.5 L 25.3125 12.21875 L 26.09375 11.40625 C 28.546875 9.042969 31.871094 8.265625 34.8125 9.15625 L 35.9375 9.5 L 36.09375 8.34375 C 36.429688 5.914063 38.394531 4.09375 40.90625 4.09375 Z M 16.9375 14.75 C 17.605469 14.75 18.273438 14.992188 18.78125 15.5 L 19 15.71875 L 15.34375 19.40625 L 15.09375 19.1875 L 15.0625 19.15625 C 14.082031 18.140625 14.089844 16.503906 15.09375 15.5 C 15.601563 14.992188 16.269531 14.75 16.9375 14.75 Z M 32.34375 14.9375 C 33.011719 14.9375 33.679688 15.210938 34.1875 15.71875 C 35.199219 16.730469 35.199219 18.394531 34.1875 19.40625 L 34.125 19.5 L 30.4375 15.8125 L 30.5 15.71875 C 31.007813 15.210938 31.675781 14.9375 32.34375 14.9375 Z M 29 17.21875 L 32.6875 20.90625 L 33.40625 21.59375 L 37.5625 25.78125 L 38.59375 26.8125 C 40.847656 29.066406 41.652344 32.199219 40.9375 35.0625 L 40.65625 36.125 L 41.75 36.28125 C 44.171875 36.613281 45.996094 38.578125 46.09375 41.09375 C 46.09375 41.105469 46.09375 41.113281 46.09375 41.125 C 46.078125 43.863281 43.835938 46 41.1875 46 C 38.746094 46 36.785156 44.347656 36.375 42.125 L 36.1875 41 L 35.09375 41.34375 C 32.082031 42.320313 28.710938 41.539063 26.375 39.25 L 26.125 39 L 29 36.125 L 29.125 36.25 C 30.914063 38.003906 33.816406 37.996094 35.59375 36.21875 C 37.359375 34.453125 37.382813 31.542969 35.65625 29.75 L 35.59375 29.6875 L 35.53125 29.59375 L 35.625 29.5 L 34.90625 28.78125 L 30.59375 24.5 L 29.90625 23.78125 L 29.84375 23.84375 L 26.125 20.125 Z M 24.6875 21.5 L 28.4375 25.25 L 24.84375 28.84375 L 21.125 25.09375 Z M 11.0625 26.5625 L 14.03125 29.5625 L 13.90625 29.6875 C 12.117188 31.476563 12.117188 34.429688 13.90625 36.21875 C 15.695313 38.007813 18.617188 38.007813 20.40625 36.21875 L 20.4375 36.1875 L 20.4375 36.15625 L 21.21875 35.3125 L 21.25 35.25 L 25.375 31.15625 L 25.5 31 L 29.84375 26.65625 L 32.75 29.5625 L 29 33.3125 L 28.875 33.15625 L 28.1875 33.90625 L 24.21875 38.0625 L 23.96875 38.3125 L 23.21875 39.09375 L 23.1875 39.09375 C 20.828125 41.351563 17.699219 42.152344 14.84375 41.4375 L 13.84375 41.1875 L 13.625 42.1875 C 13.121094 44.457031 11.253906 46 8.90625 46 C 6.152344 46 4 43.753906 4 41.09375 C 4 38.746094 5.5625 36.839844 7.75 36.25 L 8.71875 36 L 8.46875 35.0625 C 7.757813 32.210938 8.582031 28.996094 10.8125 26.75 C 10.820313 26.742188 10.804688 26.726563 10.8125 26.71875 Z M 15.5 30.90625 L 19.1875 34.59375 L 19 34.78125 C 17.988281 35.792969 16.324219 35.792969 15.3125 34.78125 C 14.300781 33.769531 14.300781 32.105469 15.3125 31.09375 Z M 34.125 31 L 34.15625 31.0625 L 34.1875 31.09375 C 35.199219 32.105469 35.199219 33.769531 34.1875 34.78125 C 33.175781 35.792969 31.511719 35.792969 30.5 34.78125 L 30.40625 34.71875 Z"/></svg>