<?xml version="1.0" encoding="UTF-8"?>
<svg xmlns="http://www.w3.org/2000/svg" xmlns:xlink="http://www.w3.org/1999/xlink" viewBox="0 0 150 150" width="150px" height="150px">
<g id="surface18048209">
<path style=" stroke:none;fill-rule:nonzero;fill:rgb(0%,48.235294%,100%);fill-opacity:1;" d="M 45 9 C 25.152344 9 9 25.152344 9 45 L 9 105 C 9 124.847656 25.152344 141 45 141 L 105 141 C 124.847656 141 141 124.847656 141 105 L 141 45 C 141 25.152344 124.847656 9 105 9 Z M 45 15 L 105 15 C 121.605469 15 135 28.394531 135 45 L 135 105 C 135 121.605469 121.605469 135 105 135 L 45 135 C 28.394531 135 15 121.605469 15 105 L 15 45 C 15 28.394531 28.394531 15 45 15 Z M 34.84375 54.199219 C 32.738281 54.199219 31.183594 55.703125 31.183594 57.679688 C 31.183594 59.628906 32.738281 61.132812 34.84375 61.132812 C 36.953125 61.132812 38.511719 59.628906 38.511719 57.679688 C 38.511719 55.703125 36.953125 54.199219 34.84375 54.199219 Z M 66.109375 55.910156 C 55.195312 55.910156 48.339844 63.554688 48.339844 75.84375 C 48.339844 88.105469 55.0625 95.800781 66.109375 95.800781 C 77.132812 95.800781 83.828125 88.078125 83.828125 75.84375 C 83.828125 63.582031 77.078125 55.914062 66.109375 55.910156 Z M 104.898438 55.910156 C 96.597656 55.910156 91.054688 60.417969 91.054688 67.195312 C 91.054688 72.785156 94.191406 76.109375 101.074219 77.71875 L 105.976562 78.90625 C 111.015625 80.09375 113.230469 81.832031 113.230469 84.730469 C 113.230469 88.105469 109.75 90.554688 105.003906 90.554688 C 99.921875 90.554688 96.386719 88.265625 95.882812 84.65625 L 90.023438 84.65625 C 90.445312 91.460938 96.113281 95.804688 104.546875 95.804688 C 113.566406 95.804688 119.207031 91.25 119.207031 83.96875 C 119.207031 78.25 115.992188 75.082031 108.1875 73.265625 L 103.996094 72.234375 C 99.042969 71.074219 97.035156 69.519531 97.035156 66.800781 C 97.035156 63.375 100.148438 61.136719 104.816406 61.136719 C 109.25 61.136719 112.300781 63.320312 112.855469 66.824219 L 118.605469 66.824219 C 118.261719 60.417969 112.625 55.910156 104.898438 55.910156 Z M 66.109375 61.417969 C 73.339844 61.417969 77.792969 67.011719 77.792969 75.84375 C 77.792969 84.621094 73.335938 90.292969 66.109375 90.292969 C 58.808594 90.292969 54.378906 84.625 54.378906 75.84375 C 54.378906 67.011719 58.9375 61.421875 66.109375 61.417969 Z M 32.027344 66.171875 L 32.027344 94.882812 L 37.671875 94.882812 L 37.671875 66.171875 Z M 32.027344 66.171875 "/>
</g>
</svg>
