<?xml version="1.0" encoding="UTF-8"?>
<svg xmlns="http://www.w3.org/2000/svg" xmlns:xlink="http://www.w3.org/1999/xlink" viewBox="0 0 150 150" width="150px" height="150px">
<g id="surface18087594">
<path style=" stroke:none;fill-rule:nonzero;fill:rgb(0%,48.235294%,100%);fill-opacity:1;" d="M 9 63 C 4.03125 63 0 67.277344 0 72.246094 C 0 77.214844 4.03125 81 9 81 L 18 81 C 22.96875 81 27 76.980469 27 72 C 27 67.03125 22.96875 63 18 63 Z M 30 63 L 30 81 L 33 81 L 33 66 L 44.917969 66 C 46.523438 66 48 67.476562 48 69.09375 C 48 70.699219 46.523438 72 44.917969 72 L 36 72 L 46.816406 81 L 51 81 L 43.558594 75 L 45.140625 75 C 48.503906 75 51 72.445312 51 69.09375 C 51 65.730469 48.503906 63 45.140625 63 Z M 66 63 C 65.191406 63 64.464844 63.410156 64.03125 64.089844 L 54 81 L 57.246094 81 L 66 66 L 71.285156 75 L 63 75 L 66 78 L 73.042969 78 L 74.8125 81 L 78 81 L 67.921875 64.066406 C 67.5 63.398438 66.785156 63 66 63 Z M 87 63 C 82.03125 63 78 67.03125 78 72 C 78 76.96875 82.03125 81 87 81 L 99 81 L 102 78 L 86.941406 78 C 83.660156 78 81 75.316406 81 72 C 81 68.695312 83.660156 66 86.941406 66 L 99 66 L 102 63 Z M 105 63 L 105 79.277344 C 105 79.722656 105.175781 80.144531 105.503906 80.484375 C 105.832031 80.8125 106.289062 81 106.769531 81 L 120 81 L 123 78 L 108 78 L 108 63 Z M 135 63 C 130.03125 63 126 67.03125 126 72 C 126 76.96875 130.03125 81 135 81 L 147 81 L 150 78 L 134.941406 78 C 132.175781 78 129.867188 76.089844 129.210938 73.5 L 147 73.5 L 150 70.5 L 129.210938 70.5 C 129.878906 67.921875 132.175781 66 134.941406 66 L 147 66 L 150 63 Z M 8.941406 66 L 18.058594 66 C 21.339844 66 24 68.695312 24 72 C 24 75.316406 21.339844 78 18.058594 78 L 8.941406 78 C 5.660156 78 3 75.316406 3 72 C 3 68.695312 5.660156 66 8.941406 66 Z M 8.941406 66 "/>
</g>
</svg>
