<?xml version="1.0" encoding="UTF-8"?>
<svg xmlns="http://www.w3.org/2000/svg" xmlns:xlink="http://www.w3.org/1999/xlink" viewBox="0 0 150 150" width="150px" height="150px">
<g id="surface18049265">
<path style=" stroke:none;fill-rule:nonzero;fill:rgb(0%,48.235294%,100%);fill-opacity:1;" d="M 43.5 9 C 24.480469 9 9 24.480469 9 43.5 L 9 106.5 C 9 125.519531 24.480469 141 43.5 141 L 106.5 141 C 125.519531 141 141 125.519531 141 106.5 L 141 43.5 C 141 24.480469 125.519531 9 106.5 9 Z M 43.5 15 L 106.5 15 C 122.277344 15 135 27.722656 135 43.5 L 135 106.5 C 135 122.277344 122.277344 135 106.5 135 L 43.5 135 C 27.722656 135 15 122.277344 15 106.5 L 15 43.5 C 15 27.722656 27.722656 15 43.5 15 Z M 84.011719 27 C 82.835938 26.996094 81.769531 27.675781 81.277344 28.746094 C 80.785156 29.8125 80.960938 31.066406 81.726562 31.957031 C 81.726562 31.957031 92.734375 44.972656 92.992188 61.546875 C 93.042969 64.679688 91.945312 68.832031 90.953125 72.738281 C 85.378906 68.726562 60.71875 50.855469 47.148438 36.90625 C 46.0625 35.789062 44.292969 35.691406 43.089844 36.6875 C 41.882812 37.683594 41.644531 39.433594 42.539062 40.714844 C 42.539062 40.714844 47.433594 47.726562 53.210938 55.480469 C 54.300781 56.945312 55.175781 57.714844 56.285156 59.179688 C 50.449219 55.054688 44.808594 51.238281 34.964844 42.730469 C 33.796875 41.730469 32.0625 41.773438 30.945312 42.828125 C 29.828125 43.886719 29.691406 45.613281 30.628906 46.832031 C 30.628906 46.832031 38.277344 56.746094 47.773438 67.746094 C 56.039062 77.324219 65.171875 86.875 72.890625 92.582031 C 70.171875 94.144531 65.933594 95.992188 58.5 95.992188 C 50.148438 95.996094 38.855469 93.3125 25.664062 84.503906 C 24.527344 83.746094 23.019531 83.851562 22 84.765625 C 20.980469 85.675781 20.707031 87.160156 21.335938 88.375 C 21.335938 88.375 37.855469 119.996094 75.375 120 C 83.949219 120 90.089844 117.6875 94.789062 115.511719 C 99.484375 113.335938 102.652344 111.578125 105.597656 111.578125 C 111.867188 111.578125 116.257812 118.515625 116.257812 118.515625 C 116.832031 119.503906 117.921875 120.078125 119.066406 119.996094 C 120.207031 119.914062 121.199219 119.1875 121.628906 118.125 C 124.542969 110.898438 122.179688 103.53125 119.410156 98.171875 C 117.152344 93.808594 115.277344 91.84375 114.359375 90.777344 C 115.273438 88.816406 116.996094 84.617188 117 77.625 C 117.003906 64.746094 111.382812 45.25 85.707031 27.53125 C 85.207031 27.1875 84.617188 27.003906 84.011719 27 Z M 94.804688 43.117188 C 107.871094 56.25 111.003906 68.78125 111 77.625 C 110.996094 85.179688 108.398438 89.632812 108.398438 89.632812 C 107.75 90.765625 107.90625 92.1875 108.789062 93.152344 C 108.789062 93.152344 111.710938 96.359375 114.074219 100.933594 C 115.515625 103.714844 116.3125 106.835938 116.546875 109.957031 C 113.90625 107.707031 110.324219 105.582031 105.597656 105.582031 C 100.546875 105.582031 96.652344 108.035156 92.261719 110.070312 C 87.871094 112.101562 82.902344 114 75.375 114 C 55.378906 114 42.804688 104.546875 35.230469 96.484375 C 44.007812 100.355469 51.941406 101.996094 58.5 101.992188 C 71.933594 101.992188 79.945312 95.285156 79.945312 95.285156 C 80.683594 94.65625 81.074219 93.707031 80.988281 92.742188 C 80.90625 91.773438 80.359375 90.910156 79.523438 90.414062 C 73.410156 86.816406 62.5 75.464844 53.3125 64.910156 C 55.886719 66.753906 58.761719 68.878906 60.703125 70.128906 C 67.085938 74.25 70.351562 75.554688 70.351562 75.554688 C 71.722656 76.085938 73.269531 75.550781 74.019531 74.289062 C 74.765625 73.027344 74.492188 71.410156 73.371094 70.464844 C 71.941406 69.265625 68.277344 64.363281 65.328125 60.738281 C 78.652344 71.390625 91.265625 80.449219 91.265625 80.449219 C 92.03125 80.992188 93.007812 81.140625 93.90625 80.859375 C 94.800781 80.574219 95.511719 79.886719 95.824219 79 C 97.824219 73.371094 99.082031 66.84375 98.992188 61.453125 C 98.882812 54.390625 96.980469 48.382812 94.804688 43.117188 Z M 94.804688 43.117188 "/>
</g>
</svg>
